<?xml version="1.0" encoding="UTF-8"?>
<svg width="32px" height="32px" viewBox="0 0 32 32" version="1.1" xmlns="http://www.w3.org/2000/svg" xmlns:xlink="http://www.w3.org/1999/xlink">
    <!-- Generator: sketchtool 61.2 (101010) - https://sketch.com -->
    <title>F0626B1A-4C03-4107-BAA5-814AF1DD278D</title>
    <desc>Created with sketchtool.</desc>
    <g id="Asset-Artboard-Page" stroke="none" stroke-width="1" fill="none" fill-rule="evenodd">
        <g id="Icons/Navigation/Associations" fill="#FFFFFF">
            <path d="M30.6067708,15.9510002 C30.5978407,14.1343282 29.3657829,12.5518185 27.6067708,12.0976669 C26.3653898,8.41597441 23.47513,5.5257147 19.7934373,4.28433376 C19.3200394,2.54237344 17.7385775,1.33333333 15.9334372,1.33333333 C14.1282969,1.33333333 12.5468349,2.54237344 12.0734371,4.28433376 C8.3973029,5.5346607 5.51043058,8.4215329 4.26010359,12.0976669 C2.53014121,12.5794958 1.33333333,14.1551916 1.33333333,15.9510002 C1.33333333,17.7468088 2.53014121,19.3225046 4.26010359,19.8043335 C5.50507774,23.4837954 8.39397501,26.3726926 12.0734371,27.6176667 C12.5468349,29.359627 14.1282969,30.5686671 15.9334372,30.5686671 C17.7385775,30.5686671 19.3200394,29.359627 19.7934373,27.6176667 C23.47513,26.3762857 26.3653898,23.486026 27.6067708,19.8043335 C29.3657829,19.3501819 30.5978407,17.7676722 30.6067708,15.9510002 L30.6067708,15.9510002 Z M15.9401029,3.95100053 C16.6764826,3.95100053 17.2734362,4.5479542 17.2734362,5.28433386 C17.2734362,6.02071353 16.6764826,6.6176672 15.9401029,6.6176672 C15.2037232,6.6176672 14.6067696,6.02071353 14.6067696,5.28433386 C14.6067696,4.93071188 14.7472453,4.59157333 14.9972939,4.34152482 C15.2473424,4.09147632 15.5864809,3.95100053 15.9401029,3.95100053 L15.9401029,3.95100053 Z M5.27343686,14.6176669 L5.27343686,14.6176669 C6.00981653,14.6176669 6.6067702,15.2146205 6.6067702,15.9510002 C6.6067702,16.6873799 6.00981653,17.2843335 5.27343686,17.2843335 C4.5370572,17.2843335 3.94010353,16.6873799 3.94010353,15.9510002 C3.94010353,15.5973782 4.08057932,15.2582397 4.33062782,15.0081912 C4.58067633,14.7581427 4.91981488,14.6176669 5.27343686,14.6176669 L5.27343686,14.6176669 Z M15.9401029,27.9510015 C15.2037232,27.9510015 14.6067696,27.3540478 14.6067696,26.6176682 C14.6067696,25.8812885 15.2037232,25.2843348 15.9401029,25.2843348 C16.6764826,25.2843348 17.2734362,25.8812885 17.2734362,26.6176682 C17.2734362,27.3540478 16.6764826,27.9510015 15.9401029,27.9510015 L15.9401029,27.9510015 Z M19.5401041,24.8976669 C18.8717583,23.5177057 17.4733944,22.6412266 15.940104,22.6412266 C14.4068136,22.6412266 13.0084497,23.5177057 12.3401039,24.8976669 C9.9253359,23.8976016 8.0068358,21.9791016 7.00677045,19.5643337 C8.3867318,18.895988 9.26321093,17.4976242 9.26321093,15.9643339 C9.26321093,14.4310435 8.3867318,13.0326797 7.00677045,12.364334 C8.00183413,9.94622835 9.92199819,8.0260644 12.3401039,7.03100077 C13.011286,8.40346898 14.4056433,9.27374274 15.9334373,9.27374274 C17.4612313,9.27374274 18.8555887,8.40346898 19.5267708,7.03100077 C21.9390589,8.03477428 23.8563307,9.95204591 24.8601042,12.364334 C23.4801429,13.0326797 22.6036638,14.4310435 22.6036638,15.9643339 C22.6036638,17.4976242 23.4801429,18.895988 24.8601042,19.5643337 C23.8656486,21.9782266 21.9515003,23.8971721 19.5401041,24.8976669 L19.5401041,24.8976669 Z" id="Shape"></path>
        </g>
    </g>
</svg>