<?xml version="1.0" encoding="UTF-8"?>
<svg width="33px" height="32px" viewBox="0 0 33 32" version="1.1" xmlns="http://www.w3.org/2000/svg" xmlns:xlink="http://www.w3.org/1999/xlink">
    <!-- Generator: sketchtool 61.2 (101010) - https://sketch.com -->
    <title>3E1CD894-83EC-4861-BB54-C5DBABBD68A9</title>
    <desc>Created with sketchtool.</desc>
    <g id="Asset-Artboard-Page" stroke="none" stroke-width="1" fill="none" fill-rule="evenodd">
        <g id="Icons/Navigation/Dashboard" transform="translate(0.636364, 0.000000)" fill="#FFFFFF">
            <path d="M11.6666667,21.3333333 C13.3235209,21.3333333 14.6666667,22.6764791 14.6666667,24.3333333 L14.6666667,27.6666667 C14.6666667,29.3235209 13.3235209,30.6666667 11.6666667,30.6666667 L4.33333333,30.6666667 C2.67647908,30.6666667 1.33333333,29.3235209 1.33333333,27.6666667 L1.33333333,24.3333333 C1.33333333,22.6764791 2.67647908,21.3333333 4.33333333,21.3333333 L11.6666667,21.3333333 Z M26.6666667,14.6666667 C28.8758057,14.6666667 30.6666667,16.4575277 30.6666667,18.6666667 L30.6666667,18.6666667 L30.6666667,26.6666667 C30.6666667,28.8758057 28.8758057,30.6666667 26.6666667,30.6666667 L26.6666667,30.6666667 L21.3333333,30.6666667 C19.1241943,30.6666667 17.3333333,28.8758057 17.3333333,26.6666667 L17.3333333,26.6666667 L17.3333333,18.6666667 C17.3333333,16.4575277 19.1241943,14.6666667 21.3333333,14.6666667 L21.3333333,14.6666667 Z M26.6666667,17.3333333 L21.3333333,17.3333333 C20.5969537,17.3333333 20,17.930287 20,18.6666667 L20,18.6666667 L20,26.6666667 C20,27.4030463 20.5969537,28 21.3333333,28 L21.3333333,28 L26.6666667,28 C27.4030463,28 28,27.4030463 28,26.6666667 L28,26.6666667 L28,18.6666667 C28,17.930287 27.4030463,17.3333333 26.6666667,17.3333333 L26.6666667,17.3333333 Z M10.6666667,1.33333333 C12.8758057,1.33333333 14.6666667,3.12419433 14.6666667,5.33333333 L14.6666667,5.33333333 L14.6666667,13.3333333 C14.6666667,15.5424723 12.8758057,17.3333333 10.6666667,17.3333333 L10.6666667,17.3333333 L5.33333333,17.3333333 C3.12419433,17.3333333 1.33333333,15.5424723 1.33333333,13.3333333 L1.33333333,13.3333333 L1.33333333,5.33333333 C1.33333333,3.12419433 3.12419433,1.33333333 5.33333333,1.33333333 L5.33333333,1.33333333 Z M10.6666667,4 L5.33333333,4 C4.59695367,4 4,4.59695367 4,5.33333333 L4,5.33333333 L4,13.3333333 C4,14.069713 4.59695367,14.6666667 5.33333333,14.6666667 L5.33333333,14.6666667 L10.6666667,14.6666667 C11.4030463,14.6666667 12,14.069713 12,13.3333333 L12,13.3333333 L12,5.33333333 C12,4.59695367 11.4030463,4 10.6666667,4 L10.6666667,4 Z M26.6666667,1.33333333 C28.8758057,1.33333333 30.6666667,3.12419433 30.6666667,5.33333333 L30.6666667,5.33333333 L30.6666667,9.33333333 C30.6666667,11.5424723 28.8758057,13.3333333 26.6666667,13.3333333 L26.6666667,13.3333333 L21.3333333,13.3333333 C19.1241943,13.3333333 17.3333333,11.5424723 17.3333333,9.33333333 L17.3333333,9.33333333 L17.3333333,5.33333333 C17.3333333,3.12419433 19.1241943,1.33333333 21.3333333,1.33333333 L21.3333333,1.33333333 Z M26.6666667,4 L21.3333333,4 C20.5969537,4 20,4.59695367 20,5.33333333 L20,5.33333333 L20,9.33333333 C20,10.069713 20.5969537,10.6666667 21.3333333,10.6666667 L21.3333333,10.6666667 L26.6666667,10.6666667 C27.4030463,10.6666667 28,10.069713 28,9.33333333 L28,9.33333333 L28,5.33333333 C28,4.59695367 27.4030463,4 26.6666667,4 L26.6666667,4 Z" id="Combined-Shape"></path>
        </g>
    </g>
</svg>