<?xml version="1.0" encoding="UTF-8"?>
<svg width="85px" height="102px" viewBox="0 0 85 102" version="1.1" xmlns="http://www.w3.org/2000/svg" xmlns:xlink="http://www.w3.org/1999/xlink">
    <!-- Generator: sketchtool 61.2 (101010) - https://sketch.com -->
    <title>1C96178D-C533-433F-AEF9-598FCBD21A32</title>
    <desc>Created with sketchtool.</desc>
    <defs>
        <linearGradient x1="9.85416667%" y1="49.2990451%" x2="94.8541667%" y2="50.6788194%" id="linearGradient-1">
            <stop stop-color="#46B74B" offset="0%"></stop>
            <stop stop-color="#F5D545" offset="100%"></stop>
        </linearGradient>
    </defs>
    <g id="Asset-Artboard-Page" stroke="none" stroke-width="1" fill="none" fill-rule="evenodd">
        <g id="Illustrations/Organisations" fill-rule="nonzero">
            <rect id="Rectangle" fill="url(#linearGradient-1)" opacity="0.5" x="36.5" y="15.5" width="48" height="17" rx="6"></rect>
            <rect id="Rectangle-2" fill="url(#linearGradient-1)" opacity="0.5" x="36.5" y="84.5" width="48" height="17" rx="6"></rect>
            <rect id="Rectangle-3" fill="url(#linearGradient-1)" opacity="0.5" x="36.5" y="49.5" width="48" height="17" rx="6"></rect>
            <path d="M37.5,29 L73.5,29 C77.6421356,29 81,25.6421356 81,21.5 L81,16.5 C81,12.3578644 77.6421356,9 73.5,9 L37.5,9 C33.3578644,9 30,12.3578644 30,16.5 L30,17 L3,17 L3,1.5 C3,0.671572875 2.32842712,0 1.5,0 C0.671572875,0 0,0.671572875 0,1.5 L0,87.5 C0,88.3284271 0.671572875,89 1.5,89 L30,89 L30,90.5 C30,94.6421356 33.3578644,98 37.5,98 L73.5,98 C77.6421356,98 81,94.6421356 81,90.5 L81,85.5 C81,81.3578644 77.6421356,78 73.5,78 L37.5,78 C33.3578644,78 30,81.3578644 30,85.5 L30,86 L3,86 L3,55 L30,55 L30,55.5 C30,57.4891237 30.7901763,59.396778 32.1966991,60.8033009 C33.603222,62.2098237 35.5108763,63 37.5,63 L73.5,63 C75.4891237,63 77.396778,62.2098237 78.8033009,60.8033009 C80.2098237,59.396778 81,57.4891237 81,55.5 L81,50.5 C81,46.3578644 77.6421356,43 73.5,43 L37.5,43 C35.5108763,43 33.603222,43.7901763 32.1966991,45.1966991 C30.7901763,46.603222 30,48.5108763 30,50.5 L30,52 L3,52 L3,20 L30,20 L30,21.5 C30,25.6421356 33.3578644,29 37.5,29 Z M33,85.5 C33.0054995,83.0170001 35.0170001,81.0054995 37.5,81 L73.5,81 C75.9829999,81.0054995 77.9945005,83.0170001 78,85.5 L78,90.5 C77.9945005,92.9829999 75.9829999,94.9945005 73.5,95 L37.5,95 C35.0170001,94.9945005 33.0054995,92.9829999 33,90.5 L33,85.5 Z M33,50.5 C33.0054995,48.0170001 35.0170001,46.0054995 37.5,46 L73.5,46 C75.9829999,46.0054995 77.9945005,48.0170001 78,50.5 L78,55.5 C77.9945005,57.9829999 75.9829999,59.9945005 73.5,60 L37.5,60 C35.0170001,59.9945005 33.0054995,57.9829999 33,55.5 L33,50.5 Z M33,16.5 C33.0054995,14.0170001 35.0170001,12.0054995 37.5,12 L73.5,12 C75.9829999,12.0054995 77.9945005,14.0170001 78,16.5 L78,21.5 C77.9945005,23.9829999 75.9829999,25.9945005 73.5,26 L37.5,26 C35.0170001,25.9945005 33.0054995,23.9829999 33,21.5 L33,16.5 Z" id="Shape" fill="#4E4E4E"></path>
        </g>
    </g>
</svg>