<?xml version="1.0" encoding="UTF-8"?>
<svg width="244px" height="55px" viewBox="0 0 244 55" version="1.1" xmlns="http://www.w3.org/2000/svg" xmlns:xlink="http://www.w3.org/1999/xlink">
    <!-- Generator: sketchtool 61.2 (101010) - https://sketch.com -->
    <title>A24CD203-7FBE-477B-AFFD-A6EB0F985958</title>
    <desc>Created with sketchtool.</desc>
    <g id="Asset-Artboard-Page" stroke="none" stroke-width="1" fill="none" fill-rule="evenodd">
        <g id="Brand/Logo_Extended">
            <g id="logo-grey-green" transform="translate(0.000000, 0.000000)">
                <path d="M13.3766885,6.02621075 C15.2407773,5.36456641 17.2064749,5.02969996 19.1846034,5.03994547 C22.7738797,5.03994547 26.2680329,6.11033179 28.7844717,8.03109554 C21.5891645,15.0773112 18.4965822,21.758463 19.602929,27.9219469 C21.2243457,36.8635821 31.0539148,40.8636455 31.4716998,41.0302698 L32.4683307,41.4346979 L33.4373974,40.9817385 C40.4786701,37.6848408 44.4138486,33.2280433 45.1402433,27.7407632 C46.2314568,19.5173922 39.5177104,11.5868272 36.0024788,8.0650675 C40.0560208,4.98332554 46.2314568,4.05206248 51.3173008,5.97336548 C54.3531335,7.12140198 59.4541107,10.2764802 59.4541107,18.5440686 C59.4541107,26.8100393 51.9420868,34.57398 45.6423421,39.6503612 C41.4644915,42.9531905 37.0055953,45.8893384 32.3186199,48.4253721 C27.6170517,45.8850245 23.1430223,42.9510336 18.9419314,39.6503612 C12.5659801,34.5594206 4.95721159,26.7782243 4.95721159,18.5359801 C4.95721159,10.2937358 10.2268161,7.16993335 13.3723647,6.03429931 L13.3766885,6.02621075 Z M33.8384279,31.2544343 L38.2086866,27.7321354 C39.5771623,26.4940462 37.8649462,24.3872455 36.3678381,25.4678774 L33.8638301,27.4900177 L33.8638301,25.2931644 L36.407833,23.271024 C37.8141418,22.0302387 36.0700378,19.8797598 34.5604988,20.9900497 L33.8346446,21.5648768 L33.8346446,17.5836868 C33.8789633,16.7494864 33.21148,16.0479385 32.3732076,16.0479385 C31.5354756,16.0479385 30.8679923,16.7494864 30.912311,17.5836868 L30.912311,21.4235966 L30.4777713,21.0466696 C29.0103891,19.7681376 27.0890103,21.964991 28.5563924,23.2435229 L30.912311,25.2888505 L30.912311,27.5175189 L28.4801859,25.5881273 C26.9879419,24.3327825 25.1000723,26.5652255 26.5906948,27.8205703 L26.6604158,27.8734156 L30.912311,31.2587482 L30.912311,35.1741512 C28.545583,33.7122785 25.1676314,30.9826586 24.4585318,27.0392152 C23.6478234,22.5905064 26.3923415,17.229947 32.3715861,11.4142712 C35.2658151,14.3126725 41.046166,20.9242627 40.2230267,27.0877466 C39.8176725,30.1781164 37.6622691,32.888863 33.8303208,35.1763082 L33.8303208,31.2625229 L33.8384279,31.2544343 Z M31.2122731,53.4009159 C31.90678,53.7444101 32.7218122,53.7444101 33.416319,53.4009159 C34.683186,52.7689296 64.3902439,37.7775896 64.3902439,18.5149498 C64.3902439,10.3082952 60.2604953,4.04828782 53.0403264,1.32675647 C46.0644509,-1.30633994 37.7952253,0.0859711251 32.3672624,4.5621811 C27.190619,0.218623535 18.7792492,-1.19687474 11.6790651,1.3790625 C4.25621906,4.06069028 0,10.3082952 0,18.5187245 C0,37.6810661 29.9264896,52.7689296 31.2122731,53.4009159 L31.2122731,53.4009159 Z" id="Fill-1" fill="#39B54A"></path>
                <path d="M171.118053,34.8780488 L169.615808,34.8780488 C169.293706,34.8904206 169.037317,35.1470023 169.02439,35.4665191 L169.02439,53.0679146 C169.028699,53.3917347 169.29209,53.6542333 169.615808,53.6585366 L171.118053,53.6585366 C171.438001,53.6461647 171.69439,53.389583 171.707317,53.0679146 L171.707317,35.4665191 C171.68631,35.1513056 171.433692,34.8990272 171.118053,34.8780488" id="Fill-2" fill="#39B54A"></path>
                <path d="M176.494564,41.5853659 L174.992017,41.5853659 C174.668234,41.5916531 174.402635,41.8431448 174.390244,42.160653 L174.390244,53.0832494 C174.394554,53.3986619 174.655304,53.6543451 174.979626,53.6585366 L176.484328,53.6585366 C176.803801,53.6464859 177.06078,53.3965661 177.073171,53.0832494 L177.073171,42.160653 C177.05216,41.8515278 176.800029,41.6078953 176.484328,41.5853659" id="Fill-3" fill="#39B54A"></path>
                <path d="M176.402439,38.902439 C179.085366,38.902439 179.085366,34.8780488 176.402439,34.8780488 C173.719512,34.8780488 173.719512,38.902439 176.402439,38.902439" id="Fill-4" fill="#39B54A"></path>
                <path d="M190.288716,36.0950152 C189.276811,35.2983106 188.005329,34.8676452 186.697001,34.8782397 C183.624987,34.8782397 182.007588,36.755051 182.007588,40.0430465 L182.007588,41.4542306 L180.357742,41.4542306 C180.037121,41.4399281 179.768746,41.6798929 179.756098,41.9860733 C179.756098,41.9860733 179.756098,42.0189161 179.756098,42.0337484 L179.756098,43.328923 C179.758297,43.6499356 180.026672,43.9084408 180.357742,43.9105597 L182.007588,43.9105597 L182.007588,53.0790188 C182.020237,53.3936747 182.282562,53.6463529 182.608682,53.6585366 L184.146889,53.6585366 C184.475758,53.6463529 184.737534,53.3936747 184.750732,53.0790188 L184.750732,43.8856627 L188.342448,43.8856627 C188.669117,43.8729493 188.933093,43.6208008 188.944092,43.3061449 L188.944092,42.0109703 C188.952341,41.6963144 188.692765,41.4378092 188.368295,41.4293336 L184.750732,41.4293336 L184.750732,40.0287439 C184.750732,38.4951936 185.328728,37.385952 186.754746,37.385952 C187.481228,37.3716495 188.194511,37.5845984 188.785156,37.9946046 C189.029884,38.223975 189.435746,38.1725918 189.61008,37.8870707 L190.404756,36.7778291 C190.548842,36.5542857 190.501547,36.2624079 190.293116,36.0907774" id="Fill-5" fill="#39B54A"></path>
                <path d="M191.990613,46.8767866 C192.179353,45.2649744 193.385865,43.9538111 195.385743,43.9538111 C196.176367,43.9165084 196.949983,44.2015681 197.534858,44.7432929 C198.120282,45.286688 198.469781,46.0438778 198.503798,46.846165 L198.503798,46.8767866 L191.990613,46.8767866 Z M195.438964,41.5981713 C191.636725,41.5981713 189.146341,44.6798226 189.146341,48.2792581 C189.146341,51.8786936 191.615327,54.9976477 195.466945,54.9976477 C197.162316,55.0410747 198.816536,54.4820905 200.145399,53.4142301 C200.458686,53.2271596 200.486119,52.7811971 200.199168,52.5551537 L199.463959,51.389304 C199.245591,51.0563632 198.998693,51.13932 198.722715,51.3347418 C197.84595,52.0440505 196.755207,52.4265427 195.632093,52.4181914 C193.653612,52.4616184 191.990613,50.9216279 191.855642,48.9189722 L200.587073,48.9189722 C200.891582,48.910064 201.140126,48.6706584 201.163719,48.3622149 C201.191701,48.1400688 201.216939,47.6941062 201.216939,47.4725169 C201.26193,45.9586939 200.715461,44.4866278 199.691106,43.3836917 C198.668946,42.2790854 197.256686,41.633247 195.76487,41.5853659 L195.455972,41.5853659 L195.438964,41.5981713 Z" id="Fill-6" fill="#39B54A"></path>
                <path d="M87.7849787,18.1220947 L75.9324505,18.1220947 C76.390562,14.9596678 79.0287424,12.6131266 82.1437965,12.6002851 C85.1567006,12.5981464 87.6385289,15.0308237 87.7771611,18.1220947 M82.1437965,9.3902439 C75.7714079,9.3902439 72.4390244,14.7783004 72.4390244,20.0989459 C72.4390244,26.4312899 76.4291289,30.8536585 82.1437965,30.8536585 C85.3766359,30.8536585 88.0377479,29.6498926 89.4464799,28.5023024 C90.2282402,27.9004194 90.0713669,27.5992104 89.6804868,26.9727171 L89.1327334,26.1702064 C88.996186,25.8898627 88.7564461,25.6747899 88.4651101,25.5763486 C88.1477155,25.5116127 87.8277149,25.7416657 87.4592452,26.0027492 C85.9118811,27.1000488 84.067448,27.6767864 82.1865327,27.647361 C79.3138243,27.647361 76.0424181,24.9182898 75.8693885,20.9827776 L90.0937774,20.9827776 C90.6394461,20.9784976 91.0913035,20.5462118 91.1340397,19.9881994 C91.1851147,19.574104 91.2132581,19.1584034 91.2195122,18.7427029 C91.2195122,13.3257561 87.4086914,9.39452396 82.1557835,9.39452396" id="Fill-7" fill="#706F6F"></path>
                <path d="M111.221939,9.80466579 C111.012668,9.51623298 110.664612,9.36054482 110.30836,9.3949601 L108.874064,9.3949601 C108.455522,9.39878402 108.084517,9.66372703 107.943547,10.058137 L101.21574,25.1019835 L94.88735,10.0668774 C94.7212448,9.62931175 94.285765,9.35617463 93.8180477,9.3949601 L92.2493371,9.3949601 C91.8952708,9.36272992 91.551586,9.51841808 91.3445009,9.80466579 C91.1778493,10.0969225 91.1778493,10.4552784 91.3445009,10.7475351 L100.075952,30.2194806 C100.236047,30.6160757 100.628907,30.8700933 101.055645,30.8509737 L101.326658,30.8509737 C101.751757,30.8826576 102.148442,30.6313714 102.302527,30.2320449 L111.219753,10.7431649 C111.382034,10.4443529 111.382034,10.0816268 111.219753,9.78499991" id="Fill-8" fill="#706F6F"></path>
                <path d="M126.697498,18.1220947 L114.829052,18.1220947 C115.287698,14.9559227 117.933131,12.6088466 121.055995,12.6002851 C124.072414,12.5981464 126.557139,15.0308237 126.693324,18.1220947 M121.059647,9.3902439 C114.680344,9.3902439 111.341463,14.7783004 111.341463,20.0989459 C111.341463,26.4312899 115.338833,30.8536585 121.059647,30.8536585 C124.294693,30.8536585 126.960476,29.6498926 128.368765,28.5023024 C129.151437,27.9004194 128.994381,27.5992104 128.603045,26.9727171 L128.057261,26.1702064 C127.920554,25.8898627 127.677926,25.6747899 127.38625,25.5763486 C127.070572,25.5116127 126.748633,25.7416657 126.38182,26.0027492 C124.828476,27.1043288 122.977717,27.6789264 121.090432,27.647361 C118.214372,27.647361 114.939148,24.9182898 114.765917,20.9827776 L129.006904,20.9827776 C129.549035,20.9726125 129.993071,20.5419318 130.036379,19.9881994 C130.086992,19.574104 130.11569,19.1584034 130.121951,18.7427029 C130.121951,13.3257561 126.306162,9.39452396 121.047646,9.39452396" id="Fill-9" fill="#706F6F"></path>
                <path d="M146.056693,10.3163179 C145.505062,9.55312259 143.742604,9.39282421 142.361321,9.39282421 C139.988759,9.3353794 137.693977,10.2391778 136.00654,11.8957767 L135.704799,10.6648165 C135.601644,10.1795446 135.166407,9.8354228 134.66663,9.8441763 L133.937927,9.8441763 C133.321756,9.86770131 132.828598,10.3568028 132.804878,10.9679062 L132.804878,29.7293815 C132.813153,30.3448616 133.315136,30.8432638 133.937927,30.8536585 L135.295489,30.8536585 C135.91166,30.8301335 136.405369,30.3388436 136.429089,29.7293815 L136.429089,15.4092108 C136.627124,15.1159687 138.273741,12.8592082 141.943186,12.8592082 C142.699471,12.8827333 143.438655,13.0709334 144.111093,13.4150552 L144.1475,13.4150552 C144.421109,13.5627704 144.746571,13.5862954 145.03728,13.4790651 C145.298201,13.3532336 145.487962,13.1179834 145.559122,12.84006 L146.14716,11.2223047 C146.27238,10.9192149 146.233214,10.5729048 146.044005,10.3037348" id="Fill-10" fill="#706F6F"></path>
                <path d="M156.450834,27.7516359 C152.664912,27.7516359 149.812866,24.4818951 149.812866,20.1407717 C149.812866,16.4975313 152.06146,12.6643026 156.249683,12.6643026 C159.225102,12.6643026 161.209251,14.7579514 161.479597,15.0618247 L161.479597,26.1367358 C159.985719,27.1276972 158.253142,27.6863274 156.465853,27.7559538 M163.841373,9.82689301 L163.220756,9.82689301 C162.613014,9.82689301 162.359832,10.195535 162.127034,10.636502 L161.877607,11.3802628 C160.130548,10.1070177 158.032681,9.40913478 155.874738,9.3902439 C150.38306,9.3902439 146.219512,14.0330815 146.219512,20.1936661 C146.219512,26.3542508 150.418463,31.0429662 155.987919,31.0429662 C157.942566,31.0240754 159.849473,30.4379185 161.481743,29.3541219 L161.481743,30.5685354 C161.481743,35.8709345 158.468776,36.9844167 155.943934,36.9844167 C154.269825,36.9844167 152.628973,36.2843748 150.929653,34.8529861 C150.695246,34.6041663 150.362141,34.4735494 150.020453,34.4967582 C149.766735,34.5323809 149.542519,34.6797298 149.410564,34.9015626 L148.532475,36.1958575 C148.281439,36.6535565 148.379601,37.2246007 148.769565,37.5684146 C150.804135,39.252941 153.345606,40.1974849 155.979337,40.2439024 C161.611552,40.2439024 165,36.600662 165,30.5285947 L165,10.9355176 C164.958161,10.3239929 164.461453,9.84362493 163.851564,9.82689301" id="Fill-11" fill="#706F6F"></path>
                <path d="M182.250369,10.3161384 C181.70165,9.55293643 179.941456,9.39263665 178.559744,9.39263665 C176.192433,9.33737973 173.902802,10.241186 172.218084,11.895611 L171.916729,10.66464 C171.813156,10.1793639 171.378479,9.83523911 170.879344,9.84399268 L170.155984,9.84399268 C169.540604,9.86751791 169.04808,10.3566237 169.02439,10.9677324 L169.02439,29.7293717 C169.032654,30.3448572 169.533993,30.8432637 170.155984,30.8536585 L171.511802,30.8536585 C172.127182,30.8301333 172.620256,30.3388391 172.643946,29.7293717 L172.643946,15.4090758 C172.841727,15.1158311 174.486228,12.859051 178.15096,12.859051 C178.910681,12.8809349 179.65718,13.0685896 180.333161,13.4149028 L180.369522,13.4149028 C180.642779,13.5626193 180.965619,13.5861445 181.258709,13.4789133 C181.516541,13.3508923 181.708262,13.1178284 181.77933,12.8399025 L182.366613,11.2221331 C182.491672,10.9190407 182.453108,10.5727275 182.263591,10.3035552" id="Fill-12" fill="#706F6F"></path>
                <path d="M197.785157,18.1220947 L185.926047,18.1220947 C186.384413,14.9559227 189.030316,12.6088466 192.149186,12.6002851 C195.163763,12.5981464 197.64697,15.0308237 197.785157,18.1220947 M192.149186,9.3902439 C185.775344,9.3902439 182.439024,14.7783004 182.439024,20.0989459 C182.439024,26.4312899 186.431345,30.8536585 192.149186,30.8536585 C195.38382,30.8536585 198.047975,29.6498926 199.455403,28.5023024 C200.237597,27.9004194 200.081159,27.5992104 199.690061,26.9727171 L199.142004,26.1702064 C199.005381,25.8898627 198.764986,25.6747899 198.47401,25.5763486 C198.155917,25.5116127 197.836261,25.7416657 197.467586,26.0027492 C195.919363,27.1000488 194.075991,27.6767864 192.191946,27.647361 C189.317642,27.647361 186.044419,24.9182898 185.873379,20.9827776 L200.103582,20.9827776 C200.645381,20.9726125 201.091232,20.5419318 201.131906,19.9881994 C201.18301,19.574104 201.21169,19.1584034 201.219512,18.7427029 C201.219512,13.3257561 197.406575,9.39452396 192.149186,9.39452396" id="Fill-13" fill="#706F6F"></path>
                <path d="M219.252839,18.1220947 L207.391972,18.1220947 C207.850325,14.9559227 210.494069,12.6088466 213.612852,12.6002808 C216.629432,12.5960064 219.114134,15.0286837 219.252839,18.1220947 M213.612852,9.3902439 C207.239188,9.3902439 203.902439,14.7783004 203.902439,20.0989459 C203.902439,26.4312899 207.89517,30.8536585 213.612852,30.8536585 C216.847397,30.8536585 219.511477,29.6498926 220.918867,28.5023024 C221.701039,27.9004194 221.544605,27.5992104 221.153518,26.9727171 L220.605476,26.1702064 C220.468857,25.8898627 220.228469,25.6747899 219.936979,25.5763486 C219.619417,25.5116127 219.299769,25.7416657 218.933191,26.0027492 C217.382925,27.1000488 215.539604,27.6767864 213.655611,27.647361 C210.781387,27.647361 207.508255,24.9182898 207.336699,20.9827776 L221.568591,20.9827776 C222.108812,20.9726125 222.554651,20.5419318 222.597409,19.9881994 C222.646425,19.574104 222.676669,19.1584034 222.682927,18.7427029 C222.682927,13.3257561 218.870096,9.39452396 213.612852,9.39452396" id="Fill-14" fill="#706F6F"></path>
                <path d="M235.280522,9.3902439 C232.797403,9.40558274 230.39684,10.301809 228.495921,11.9260822 L228.114442,10.5779081 C228.059406,10.1139083 227.643934,9.78193205 227.186915,9.83780924 L226.476296,9.83780924 C225.873593,9.86136531 225.389055,10.3511124 225.365854,10.9630224 L225.365854,29.7454276 C225.384739,30.3551464 225.873593,30.8448935 226.476296,30.8536585 L227.802029,30.8536585 C228.405273,30.8301025 228.88981,30.3398075 228.910853,29.7278975 L228.910853,15.46771 C229.210317,15.1340903 231.554225,12.6771374 235.059297,12.6771374 C237.963283,12.6771374 239.259878,14.4235735 239.259878,18.3349768 L239.259878,29.7454276 C239.276605,30.3551464 239.765459,30.8448935 240.368163,30.8536585 L241.696054,30.8536585 C242.299297,30.8301025 242.781676,30.3398075 242.804878,29.7278975 L242.804878,18.7825421 C242.804878,14.4104259 241.951272,9.3902439 235.278363,9.3902439" id="Fill-15" fill="#706F6F"></path>
            </g>
        </g>
    </g>
</svg>