<?xml version="1.0" encoding="UTF-8"?>
<svg width="43px" height="35px" viewBox="0 0 43 35" version="1.1" xmlns="http://www.w3.org/2000/svg" xmlns:xlink="http://www.w3.org/1999/xlink">
    <!-- Generator: sketchtool 61.2 (101010) - https://sketch.com -->
    <title>5C70BD8E-4FBA-4086-A305-D626294A5820</title>
    <desc>Created with sketchtool.</desc>
    <g id="Asset-Artboard-Page" stroke="none" stroke-width="1" fill="none" fill-rule="evenodd">
        <g id="Brand-/-Logo-/-_White-Heart" fill="#FFFFFF">
            <path d="M20.3050417,34.8143402 L20.302355,34.8062801 C19.4663493,34.3925312 0,24.5552477 0,12.0626274 C0,6.71031052 2.76862508,2.63954058 7.59614359,0.888719935 C12.2158921,-0.78329139 17.686423,0.131971371 21.0694025,2.97448018 C24.6001495,0.0554009539 29.9788855,-0.851353982 34.5162424,0.864987583 C39.1991279,2.63954058 41.8858092,6.72105724 41.8858092,12.0706875 C41.8858092,24.6291314 22.561854,34.4032779 21.7392817,34.8143402 C21.2870237,35.0382303 20.7568519,35.0382303 20.3050417,34.8143402 Z M20.1071229,14.0480845 L19.6539693,13.6737402 C19.2433548,13.3414873 18.6410904,13.4055199 18.3092852,13.8161343 C17.9770323,14.2267488 18.0406171,14.8462527 18.4512316,15.1780578 L20.1071229,16.4790832 L20.1071229,17.9316822 L18.5251153,16.6743154 C18.1234565,16.334898 17.5229832,16.3859449 17.1835657,16.7876038 C16.8445961,17.1892626 16.8956431,17.7897358 17.2968541,18.1287055 C17.3111831,18.1412433 17.3264076,18.1528856 17.3411844,18.1640801 L20.1071229,20.3707409 L20.1071229,22.9230881 C18.5672067,21.9711074 16.3712924,20.1916288 15.909631,17.6209227 C15.3821459,14.7202026 17.1669979,11.2243825 21.056417,7.43302757 C22.9442584,9.32042112 26.6984479,13.6316489 26.1633505,17.6495806 C25.8996079,19.6641438 24.4971603,21.4306367 22.0057111,22.9230881 L22.0057111,20.3707409 L22.0110844,20.3653676 L24.8531455,18.0691507 C25.2427143,17.7158521 25.2722678,17.1140355 24.919417,16.7244667 C24.593433,16.3648992 24.0489323,16.3080312 23.6557812,16.5923716 L22.0267567,17.9106365 L22.0267567,16.4790832 L23.682648,15.1608183 C24.0932625,14.8290132 24.1568473,14.2267488 23.8245944,13.8161343 C23.4927892,13.4055199 22.8905248,13.3414873 22.4799103,13.6737402 L22.0083977,14.0480845 L22.0083977,11.453646 C22.0083977,10.9288476 21.5830065,10.5034564 21.0577603,10.5034564 C20.5329619,10.5034564 20.1071229,10.9288476 20.1071229,11.453646 L20.1071229,14.0480845 L20.1071229,14.0480845 Z M8.70081767,3.91795291 L8.69813099,3.92332627 C6.65222313,4.66440248 3.22446549,6.69956343 3.22446549,12.0733735 C3.22446549,17.4467357 8.17064588,22.5196374 12.3211208,25.8341064 C15.053028,27.9870335 17.9635994,29.9030849 21.0223862,31.5607672 C24.070874,29.9030849 26.9706987,27.9843468 29.6887247,25.8260463 C33.7859138,22.5303842 38.6720916,17.4628558 38.6720916,12.0733735 C38.6720916,6.68389112 35.3549357,4.62723672 33.3797771,3.87854825 C30.071129,2.62610707 26.0554359,3.23240144 23.418906,5.24203892 C25.704824,7.53825572 30.071129,12.7087735 29.3618451,18.0691502 C28.8898848,21.6469138 26.3294774,24.5525595 21.7500291,26.7014566 L21.1195545,26.9969915 L20.4711687,26.733249 C20.1993661,26.6248862 13.8055123,24.0174622 12.7509898,18.1878119 C12.0309592,14.1748059 14.0428358,9.81880021 18.7230347,5.22591883 C17.0859502,3.97347765 14.81257,3.27449278 12.4791872,3.27449278 C11.1918191,3.26867164 9.91340653,3.48629281 8.70081767,3.91795291 Z" id="Shape"></path>
        </g>
    </g>
</svg>