<?xml version="1.0" encoding="UTF-8"?>
<svg width="33px" height="32px" viewBox="0 0 33 32" version="1.1" xmlns="http://www.w3.org/2000/svg" xmlns:xlink="http://www.w3.org/1999/xlink">
    <!-- Generator: sketchtool 61.2 (101010) - https://sketch.com -->
    <title>917D6927-A9BA-4E8C-BF98-6D1E048664DA</title>
    <desc>Created with sketchtool.</desc>
    <g id="Asset-Artboard-Page" stroke="none" stroke-width="1" fill="none" fill-rule="evenodd">
        <g id="Icons/Navigation/Messages" transform="translate(0.636364, 0.000000)" fill="#FFFFFF">
            <path d="M28.2189419,16.3259534 C28.8104381,16.0630663 29.5053022,16.262977 29.8666662,16.7999998 C30.2910628,17.8609332 30.5170322,18.9907803 30.5333328,20.133333 C30.5304303,22.2624026 29.7204416,24.3111975 28.2666662,25.8666662 L28.2666662,25.8666662 L28.2666662,29.3333328 C28.2692573,29.8223091 28.016537,30.2772055 27.5999996,30.5333327 C27.4435536,30.6393826 27.2546127,30.6866178 27.0666663,30.6666661 C26.7833436,30.6390481 26.5098952,30.5478986 26.2666663,30.3999994 L26.2666663,30.3999994 L23.733333,28.5333328 C20.7538782,29.3028306 17.5860516,28.6098685 15.1999999,26.6666662 C14.7490788,26.1667576 14.7415659,25.4091277 15.1824847,24.9003752 C15.6234035,24.3916227 16.3744095,24.291376 16.9333332,24.6666662 C18.8022701,26.1844532 21.3191138,26.6374851 23.5999997,25.8666662 C24.0037796,25.7779629 24.4255395,25.8248251 24.7999997,25.9999995 L24.7999997,25.9999995 L25.733333,26.6666662 L25.733333,25.1999995 C25.7238106,24.8453725 25.8699669,24.5043411 26.133333,24.2666662 C27.2795654,23.1913054 27.9511272,21.7042758 27.9999996,20.133333 C28.0148791,19.3450328 27.831489,18.5656249 27.4666662,17.8666664 C27.3102025,17.2385768 27.6274458,16.5888406 28.2189419,16.3259534 Z M14.6666667,1.33333333 C22.1333333,1.33333333 28,5.6 28,11.0666667 C28,16.5333333 22.1333333,20.6666667 14.6666667,20.6666667 C13.8200315,20.6887852 12.9729691,20.6442029 12.1333333,20.5333333 L12.1333333,20.5333333 L5.6,23.3333333 L5.06666667,23.3333333 C4.78334396,23.3057153 4.50989562,23.2145659 4.26666667,23.0666667 C3.91436333,22.82904 3.71205264,22.4244186 3.73333333,22 L3.73333333,22 L3.73333333,16.5333333 C2.22112379,15.1147834 1.35413703,13.1399802 1.33333333,11.0666667 C1.33333333,5.6 7.2,1.33333333 14.6666667,1.33333333 Z M14.68,4 C8.81333332,4 4.01333332,7.2 4.01333332,11.0666667 C4.06179199,12.6286169 4.7928483,14.0907296 6.01333332,15.0666667 C6.25557457,15.3188862 6.39775451,15.6506394 6.41333332,16 L6.41333332,16 L6.41333332,20 L11.4666667,17.8666667 C11.6752216,17.7701385 11.9036948,17.7244439 12.1333333,17.7333333 C12.969548,17.8880364 13.8165678,17.9771964 14.6666667,18 C20.5333333,18 25.3466667,14.8 25.3466667,11.0666667 C25.3466667,7.33333333 20.5466667,4 14.68,4 Z" id="Combined-Shape"></path>
        </g>
    </g>
</svg>