<?xml version="1.0" encoding="UTF-8"?>
<svg width="33px" height="32px" viewBox="0 0 33 32" version="1.1" xmlns="http://www.w3.org/2000/svg" xmlns:xlink="http://www.w3.org/1999/xlink">
    <!-- Generator: sketchtool 61.2 (101010) - https://sketch.com -->
    <title>EE398715-503C-4405-9EF4-06E9CAFDDE29</title>
    <desc>Created with sketchtool.</desc>
    <g id="Asset-Artboard-Page" stroke="none" stroke-width="1" fill="none" fill-rule="evenodd">
        <g id="Icons/Navigation/Organisations" transform="translate(0.318182, 0.000000)" fill="#FFFFFF">
            <path d="M16.6664,6.66666667 L25.9997333,6.66666667 C26.3664,6.66666667 26.6664,6.96533333 26.6664,7.33333333 C26.6664,7.70133333 26.3664,8 25.9997333,8 L16.6664,8 C16.2997333,8 15.9997333,7.70133333 15.9997333,7.33333333 C15.9997333,6.96533333 16.2997333,6.66666667 16.6664,6.66666667 L16.6664,6.66666667 Z M16.6664,17.3333333 L25.9997333,17.3333333 C26.3664,17.3333333 26.6664,17.632 26.6664,18 C26.6664,18.368 26.3664,18.6666667 25.9997333,18.6666667 L16.6664,18.6666667 C16.2997333,18.6666667 15.9997333,18.368 15.9997333,18 C15.9997333,17.632 16.2997333,17.3333333 16.6664,17.3333333 L16.6664,17.3333333 Z M13.3330666,19.3333333 C13.4250666,19.3333333 13.5050666,19.2986667 13.5904,19.2813333 C14.0944,20.4853333 15.2824,21.3333333 16.6664,21.3333333 L25.9997333,21.3333333 C27.8384,21.3333333 29.3330666,19.8373333 29.3330666,18 C29.3330666,16.1626667 27.8384,14.6666667 25.9997333,14.6666667 L16.6664,14.6666667 C15.2824,14.6666667 14.0944,15.5146667 13.5904,16.7186667 C13.5050666,16.7013333 13.4250666,16.6666667 13.3330666,16.6666667 L5.33306662,16.6666667 L5.33306662,8.66666667 L13.3330666,8.66666667 C13.4250666,8.66666667 13.5050666,8.632 13.5904,8.61466667 C14.0944,9.81866667 15.2824,10.6666667 16.6664,10.6666667 L25.9997333,10.6666667 C27.8384,10.6666667 29.3330666,9.17066667 29.3330666,7.33333333 C29.3330666,5.496 27.8384,4 25.9997333,4 L16.6664,4 C15.2824,4 14.0944,4.848 13.5904,6.052 C13.5050666,6.03466667 13.4250666,6 13.3330666,6 L5.33306662,6 L5.33306662,2.66666667 C5.33306662,1.93066667 4.73706662,1.33333333 3.99973329,1.33333333 C3.26239996,1.33333333 2.66639996,1.93066667 2.66639996,2.66666667 L2.66639996,28 C2.66639996,28.736 3.26239996,29.3333333 3.99973329,29.3333333 L13.3330666,29.3333333 C13.5397333,29.3333333 13.7290666,29.2773333 13.9037333,29.1946667 C14.5024,30.0826667 15.5184,30.6666667 16.6664,30.6666667 L25.9997333,30.6666667 C27.8384,30.6666667 29.3330666,29.1706667 29.3330666,27.3333333 C29.3330666,25.496 27.8384,24 25.9997333,24 L16.6664,24 C15.0517333,24 13.7037333,25.1546667 13.3997333,26.68 C13.3757333,26.6786667 13.3570666,26.6666667 13.3330666,26.6666667 L5.33306662,26.6666667 L5.33306662,19.3333333 L13.3330666,19.3333333 Z" id="Fill-1"></path>
        </g>
    </g>
</svg>