<?xml version="1.0" encoding="UTF-8"?>
<svg width="33px" height="32px" viewBox="0 0 33 32" version="1.1" xmlns="http://www.w3.org/2000/svg" xmlns:xlink="http://www.w3.org/1999/xlink">
    <!-- Generator: sketchtool 61.2 (101010) - https://sketch.com -->
    <title>DC7B726A-1D38-4D7B-AB41-CAC69E26E6E4</title>
    <desc>Created with sketchtool.</desc>
    <g id="Asset-Artboard-Page" stroke="none" stroke-width="1" fill="none" fill-rule="evenodd">
        <g id="Icons/Navigation/Patients" transform="translate(0.477273, 0.000000)" fill="#FFFFFF">
            <path d="M16.0800407,23.6133341 C17.0293258,22.8154948 18.3001358,22.5138629 19.5067073,22.8000008 C20.613957,23.1482048 21.3687989,24.172633 21.373374,25.333334 C21.373374,28.2266672 16.453374,30.4800005 16.253374,30.5733338 C16.1347055,30.626954 15.9987092,30.626954 15.8800407,30.5733338 C15.6667073,30.4800005 10.7067073,28.2133339 10.7067073,25.333334 C10.7277987,24.1555813 11.5191279,23.1311895 12.653374,22.8133341 C13.8578496,22.5362919 15.1227503,22.8315994 16.0800407,23.6133341 Z M16.6133744,1.33333333 C20.9772731,1.68115972 24.2511379,5.47195049 23.9600413,9.84 L23.9600413,9.84 L23.6400413,14.28 C23.5519726,15.6654542 23.0913036,17.0013942 22.3067079,18.1466667 L22.3067079,18.1466667 L25.3333747,19.48 C27.7862943,20.5315049 29.3757484,22.9445375 29.3733774,25.6133333 L29.3733774,25.6133333 L29.3733774,26.6666667 C29.3733774,27.4030463 28.7764211,28 28.0400414,28 C27.3036617,28 26.706708,27.4030463 26.706708,26.6666667 L26.706708,26.6666667 L26.706708,25.5866667 C26.7099637,23.9879415 25.7609492,22.5408256 24.2933746,21.9066667 L24.2933746,21.9066667 L19.5200412,19.8666667 C18.8481769,19.5739329 18.5385157,18.7938248 18.8267078,18.12 C18.9082489,17.9087045 19.0466957,17.7241089 19.2267078,17.5866667 C20.2788876,16.7212381 20.9335484,15.464867 21.0400412,14.1066667 L21.0400412,14.1066667 L21.3467079,9.66666667 C21.5454637,6.74326526 19.3485618,4.2070046 16.4267077,3.98666667 L16.4267077,3.98666667 L16.0400411,3.98666667 C13.0945223,3.98666667 10.7067076,6.37448133 10.7067076,9.32 C10.7000531,9.44435549 10.7000531,9.56897785 10.7067076,9.69333333 L10.7067076,9.69333333 L11.0133742,14.1333333 C11.1168245,15.4924044 11.772071,16.7498996 12.8267076,17.6133333 C13.0067198,17.7507755 13.1451665,17.9353712 13.2267076,18.1466667 C13.5148997,18.8204915 13.2052385,19.6005995 12.5333743,19.8933333 L12.5333743,19.8933333 L7.7600408,21.9333333 C6.28724457,22.5634204 5.33240653,24.0114165 5.33337406,25.6133333 L5.33337406,25.6133333 L5.33337406,26.6666667 C5.33337406,27.4030463 4.73642038,28 4.00004069,28 C3.263661,28 2.66666663,27.4030463 2.66666663,26.6666667 L2.66666663,26.6666667 L2.66666663,25.6666667 C2.65744721,23.0074237 4.22944908,20.5970209 6.66670744,19.5333333 L6.66670744,19.5333333 L9.6933742,18.2 C8.89959527,17.0593714 8.43801579,15.7207909 8.36004082,14.3333333 L8.36004082,14.3333333 L8.04004081,9.89333333 L8.04004081,9.89333333 L8.04004081,9.33333333 C8.04004081,4.91505533 11.6217629,1.33333333 16.0400411,1.33333333 L16.0400411,1.33333333 Z" id="Combined-Shape"></path>
        </g>
    </g>
</svg>