<?xml version="1.0" encoding="UTF-8"?>
<svg width="25px" height="24px" viewBox="0 0 25 24" version="1.1" xmlns="http://www.w3.org/2000/svg" xmlns:xlink="http://www.w3.org/1999/xlink">
    <!-- Generator: sketchtool 61.2 (101010) - https://sketch.com -->
    <title>B64A49BB-83F2-477A-A7CE-8F02E191A486</title>
    <desc>Created with sketchtool.</desc>
    <g id="Asset-Artboard-Page" stroke="none" stroke-width="1" fill="none" fill-rule="evenodd">
        <g id="_icon2-Icons/Navigation/Profile" transform="translate(0.795455, 0.000000)" fill="#FFFFFF">
            <path d="M12,0 C5.372583,0 0,5.372583 0,12 C0,18.627417 5.372583,24 12,24 C18.627417,24 24,18.627417 24,12 C24,8.81740212 22.7357179,5.76515517 20.4852814,3.51471863 C18.2348448,1.26428208 15.1825979,0 12,0 Z M18.3,19.8 C16.5118609,21.2294658 14.2892756,22.0056067 12,22 C9.73828992,22.0223777 7.54175128,21.2429607 5.79997765,19.8 L5.79997765,19.6 C5.7959247,18.6803516 6.34952635,17.8499491 7.2,17.5 L10.1,16.3 C10.312734,16.1868363 10.4868363,16.012734 10.6,15.8 C10.7005378,15.5774965 10.7005378,15.3225035 10.6,15.1 C10.5,15 10.4,14.8 10.3,14.7 C9.68350793,14.2171109 9.31641605,13.4829271 9.3,12.7 L9,10 L9,9.8 C9,8.14314575 10.3431458,6.8 12,6.8 L12.2,6.8 C12.9963085,6.85131005 13.7393652,7.21775171 14.2648255,7.81827772 C14.7902857,8.41880373 15.0548487,9.2039274 15,10 L14.8,12.7 C14.7368574,13.4706241 14.3786137,14.1871115 13.8,14.7 C13.6764781,14.813954 13.5748097,14.9495119 13.5,15.1 C13.3994622,15.3225035 13.3994622,15.5774965 13.5,15.8 C13.6131637,16.012734 13.787266,16.1868363 14,16.3 L16.9,17.5 C17.7221017,17.8837614 18.2619517,18.6935363 18.3,19.6 L18.3,19.8 Z M19.9,18.1 C19.4783043,17.0619974 18.6974856,16.2101952 17.7,15.7 L16,15 C16.4124168,14.3281767 16.6845497,13.5798111 16.8,12.8 L17,10.1 C17.1114568,8.78611339 16.6774974,7.48423522 15.8,6.5 C14.9178059,5.54488626 13.6982567,4.97098072 12.4,4.9 L12,4.9 C9.29608674,4.90550137 7.10550137,7.09608674 7.1,9.8 L7.1,10.2 L7.3,12.9 C7.33114163,13.6519114 7.57376648,14.3797859 8,15 L6.4,15.7 C5.33866149,16.1220908 4.52838179,17.0060322 4.2,18.1 C2.77391948,16.3876296 1.99519133,14.2284288 1.99995148,12 C1.98643465,7.62501641 4.81840411,3.74913729 8.99060419,2.43254627 C13.1628043,1.11595524 17.7064748,2.66435693 20.2064746,6.25471439 C22.7064743,9.84507185 22.5823182,14.6437253 19.9,18.1 L19.9,18.1 Z" id="Shape"></path>
        </g>
    </g>
</svg>