<?xml version="1.0" encoding="UTF-8"?>
<svg width="33px" height="32px" viewBox="0 0 33 32" version="1.1" xmlns="http://www.w3.org/2000/svg" xmlns:xlink="http://www.w3.org/1999/xlink">
    <!-- Generator: sketchtool 61.2 (101010) - https://sketch.com -->
    <title>1A9A4198-1E3B-429F-8447-AFF36EF3A72E</title>
    <desc>Created with sketchtool.</desc>
    <g id="Asset-Artboard-Page" stroke="none" stroke-width="1" fill="none" fill-rule="evenodd">
        <g id="Icons/Navigation/Dashboard-Icons/Navigation/Users" transform="translate(0.159091, 0.000000)" fill="#39B54A">
            <path d="M13.2000065,5.33333333 C15.2129419,5.46981201 17.0882141,6.40384118 18.4098596,7.9282391 C19.731505,9.45263702 20.3902613,11.4413796 20.2400064,13.4533337 L20.2400064,13.4533337 L19.9466731,17.6533338 C19.8512643,18.9797355 19.3896998,20.2536537 18.6133398,21.3333333 L18.6133398,21.3333333 L21.4933398,22.573334 C23.7860101,23.5726616 25.271546,25.8323501 25.2800064,28.3333333 L25.2800064,28.3333333 L25.2800064,29.3333333 C25.2800064,30.032895 24.7129004,30.600001 24.0133397,30.600001 C23.3137791,30.600001 22.7466731,30.032895 22.7466731,29.3333333 L22.7466731,29.3333333 L22.7466731,28.4533343 C22.7462962,26.9321624 21.8387939,25.5577946 20.4400064,24.9600008 L20.4400064,24.9600008 L15.9066731,23.0266674 C15.2877571,22.7262943 14.9989797,22.0043509 15.2400065,21.3600006 C15.3301972,21.16481 15.4622026,20.9918374 15.6266731,20.853334 C16.6356778,20.0389 17.2590953,18.8403918 17.3466731,17.5466672 L17.3466731,17.5466672 L17.6533398,13.3333333 C17.8606882,10.5689553 15.8022895,8.15360869 13.0400065,7.9200001 L13.0400065,7.9200001 L12.6800065,7.9200001 C9.88912756,7.9200001 7.62667317,10.1824546 7.62667317,12.9733336 C7.62002874,13.0932417 7.62002874,13.2134256 7.62667317,13.3333333 L7.62667317,13.3333333 L7.9200065,17.4266672 C8.01388722,18.7186144 8.63607561,19.9147596 9.64000649,20.733334 C9.80795957,20.868481 9.94063891,21.0423366 10.0266732,21.2400006 C10.2676999,21.8843508 9.97892255,22.6062943 9.3600065,22.9066674 L9.3600065,22.9066674 L4.84000652,24.8400008 C3.44121908,25.4377946 2.53371672,26.8121624 2.53333987,28.3333333 L2.53333987,28.3333333 L2.53333987,29.3333333 C2.53333987,30.032895 1.96623389,30.600001 1.26667321,30.600001 C0.567112528,30.600001 2.42591132e-12,30.032895 2.42591132e-12,29.3333333 L2.42591132e-12,29.3333333 L2.42591132e-12,28.4000009 C-0.00363096709,25.8668901 1.50868121,23.5774174 3.84000653,22.5866674 L3.84000653,22.5866674 L6.72000651,21.3466673 C5.94595198,20.2707791 5.48450118,19.0017893 5.38667318,17.6800005 L5.38667318,17.6800005 L5.08000652,13.466667 L5.08000652,13.466667 L5.08000652,12.9200003 C5.08000652,8.72999983 8.47667287,5.33333333 12.6666731,5.33333333 L12.6666731,5.33333333 Z M20.1733393,1.33333333 C24.3907763,1.85531005 27.4177059,5.65230021 26.9866724,9.88000013 L26.9866724,9.88000013 L26.8400057,14.2800002 C26.7423935,15.6635247 26.2825636,16.9970317 25.5066724,18.1466669 L25.5066724,18.1466669 L28.3200056,19.4800003 C30.6331573,20.6318157 32.0723513,23.0166174 32.0133388,25.6000004 L32.0133388,25.6000004 L32.0133388,26.6666671 C32.0133388,27.3515002 31.458172,27.9066671 30.7733389,27.9066671 C30.0885058,27.9066671 29.5333389,27.3515002 29.5333389,26.6666671 L29.5333389,26.6666671 L29.5333389,25.6133337 C29.567451,24.0550049 28.6932329,22.6187893 27.293339,21.9333336 L27.293339,21.9333336 L22.8800058,19.8933336 C22.2235713,19.585567 21.9333556,18.8096842 22.2266725,18.1466669 C22.3066725,17.9333336 23.1866725,17.4666669 23.3466725,17.3333333 C25.5600057,8.888889 24.4444502,4.44444449 20.0000059,4.00000004 C19.3714901,3.78854832 18.8781244,3.29518254 18.6666726,2.66666669 C18.5066727,1.96000001 19.0533393,1.33333333 20.1733393,1.33333333 Z" id="Combined-Shape"></path>
        </g>
    </g>
</svg>